<svg width="166" height="50" viewBox="0 0 166 50" fill="none" xmlns="http://www.w3.org/2000/svg">
<g clip-path="url(#clip0_1689_42)">
<rect width="166" height="50" rx="8" fill="#473BF0"/>
<path d="M54.4547 26.8374C54.4547 26.6216 54.4215 26.4279 54.3551 26.2563C54.2942 26.0793 54.178 25.9188 54.0064 25.7749C53.8349 25.6255 53.5942 25.4788 53.2843 25.335C52.9744 25.1911 52.5732 25.0417 52.0807 24.8867C51.5328 24.7096 51.0126 24.5104 50.5201 24.2891C50.0331 24.0677 49.6015 23.8104 49.2252 23.5171C48.8544 23.2183 48.5611 22.8724 48.3453 22.4795C48.135 22.0866 48.0299 21.63 48.0299 21.1099C48.0299 20.6063 48.1406 20.1497 48.3619 19.7402C48.5833 19.3252 48.8932 18.971 49.2916 18.6777C49.69 18.3789 50.1604 18.1493 50.7027 17.9888C51.2506 17.8283 51.851 17.748 52.504 17.748C53.395 17.748 54.1725 17.9085 54.8365 18.2295C55.5006 18.5505 56.0152 18.9904 56.3805 19.5493C56.7512 20.1082 56.9366 20.7474 56.9366 21.4668H54.463C54.463 21.1126 54.3883 20.8027 54.2389 20.5371C54.095 20.266 53.8736 20.0529 53.5748 19.8979C53.2815 19.743 52.9107 19.6655 52.4625 19.6655C52.0309 19.6655 51.6712 19.7319 51.3834 19.8647C51.0956 19.992 50.8798 20.1663 50.7359 20.3877C50.5921 20.6035 50.5201 20.847 50.5201 21.1182C50.5201 21.3229 50.5699 21.5083 50.6695 21.6743C50.7747 21.8403 50.9296 21.9953 51.1344 22.1392C51.3391 22.283 51.5909 22.4186 51.8897 22.5459C52.1886 22.6732 52.5344 22.7977 52.9273 22.9194C53.5859 23.1187 54.1642 23.3428 54.6622 23.5918C55.1658 23.8408 55.5864 24.1203 55.9239 24.4302C56.2615 24.7401 56.516 25.0915 56.6876 25.4844C56.8591 25.8773 56.9449 26.3228 56.9449 26.8208C56.9449 27.3465 56.8425 27.8169 56.6378 28.2319C56.433 28.647 56.137 28.9984 55.7496 29.2861C55.3622 29.5739 54.9002 29.7925 54.3634 29.9419C53.8266 30.0913 53.2262 30.166 52.5621 30.166C51.9645 30.166 51.3751 30.0885 50.794 29.9336C50.213 29.7731 49.6845 29.5324 49.2086 29.2114C48.7382 28.8905 48.3619 28.481 48.0797 27.9829C47.7975 27.4849 47.6563 26.8955 47.6563 26.2148H50.1549C50.1549 26.5911 50.213 26.9093 50.3292 27.1694C50.4454 27.4295 50.6087 27.6398 50.8189 27.8003C51.0348 27.9608 51.2893 28.077 51.5826 28.1489C51.8814 28.2209 52.2079 28.2568 52.5621 28.2568C52.9938 28.2568 53.3479 28.196 53.6246 28.0742C53.9068 27.9525 54.1144 27.7837 54.2472 27.5679C54.3855 27.3521 54.4547 27.1086 54.4547 26.8374ZM63.2014 27.8501V21.0186H65.592V30H63.3425L63.2014 27.8501ZM63.467 26.0073L64.1726 25.9907C64.1726 26.5884 64.1034 27.1445 63.965 27.6592C63.8267 28.1683 63.6192 28.611 63.3425 28.9873C63.0658 29.3581 62.7172 29.6486 62.2966 29.8589C61.876 30.0636 61.3807 30.166 60.8107 30.166C60.3736 30.166 59.9696 30.1051 59.5988 29.9834C59.2336 29.8561 58.9182 29.6597 58.6525 29.394C58.3925 29.1229 58.1877 28.777 58.0383 28.3564C57.8944 27.9303 57.8225 27.4185 57.8225 26.8208V21.0186H60.2131V26.8374C60.2131 27.103 60.2435 27.3271 60.3044 27.5098C60.3708 27.6924 60.4621 27.8418 60.5783 27.958C60.6945 28.0742 60.8301 28.1572 60.9851 28.207C61.1455 28.2568 61.3226 28.2817 61.5163 28.2817C62.0088 28.2817 62.3962 28.1821 62.6784 27.9829C62.9662 27.7837 63.1682 27.5125 63.2844 27.1694C63.4061 26.8208 63.467 26.4334 63.467 26.0073ZM66.8182 17.25H69.2088V27.9414L68.9681 30H66.8182V17.25ZM74.8948 25.418V25.5923C74.8948 26.2619 74.8229 26.8761 74.679 27.4351C74.5407 27.994 74.3248 28.4782 74.0315 28.8877C73.7382 29.2917 73.373 29.6071 72.9358 29.834C72.5042 30.0553 71.9951 30.166 71.4085 30.166C70.8606 30.166 70.3847 30.0553 69.9808 29.834C69.5823 29.6126 69.2475 29.3 68.9764 28.896C68.7052 28.492 68.4866 28.0189 68.3206 27.4766C68.1546 26.9342 68.0301 26.3421 67.9471 25.7002V25.3184C68.0301 24.6764 68.1546 24.0843 68.3206 23.542C68.4866 22.9997 68.7052 22.5265 68.9764 22.1226C69.2475 21.7186 69.5823 21.4059 69.9808 21.1846C70.3792 20.9632 70.8496 20.8525 71.3919 20.8525C71.984 20.8525 72.4987 20.966 72.9358 21.1929C73.3785 21.4142 73.7438 21.7297 74.0315 22.1392C74.3248 22.5431 74.5407 23.0246 74.679 23.5835C74.8229 24.1369 74.8948 24.7484 74.8948 25.418ZM72.5042 25.5923V25.418C72.5042 25.0527 72.4765 24.7096 72.4212 24.3887C72.3714 24.0622 72.2828 23.7772 72.1556 23.5337C72.0283 23.2847 71.854 23.0882 71.6326 22.9443C71.4168 22.8005 71.1373 22.7285 70.7942 22.7285C70.4677 22.7285 70.191 22.7839 69.9642 22.8945C69.7373 23.0052 69.5491 23.1602 69.3997 23.3594C69.2558 23.5586 69.1479 23.7965 69.076 24.0732C69.004 24.3444 68.9598 24.6432 68.9432 24.9697V26.0571C68.9598 26.4943 69.0317 26.8817 69.159 27.2192C69.2918 27.5513 69.491 27.8141 69.7566 28.0078C70.0278 28.196 70.3792 28.29 70.8108 28.29C71.1484 28.29 71.4279 28.2236 71.6492 28.0908C71.8706 27.958 72.0421 27.7699 72.1639 27.5264C72.2911 27.2829 72.3797 26.9979 72.4295 26.6714C72.4793 26.3394 72.5042 25.9797 72.5042 25.5923ZM80.6366 27.5181C80.6366 27.3465 80.5868 27.1916 80.4872 27.0532C80.3876 26.9149 80.2022 26.7876 79.9311 26.6714C79.6654 26.5496 79.2808 26.439 78.7773 26.3394C78.3235 26.2397 77.9001 26.1152 77.5072 25.9658C77.1199 25.8109 76.7823 25.6255 76.4945 25.4097C76.2123 25.1938 75.991 24.9393 75.8305 24.646C75.67 24.3472 75.5898 24.0068 75.5898 23.625C75.5898 23.2487 75.67 22.8945 75.8305 22.5625C75.9965 22.2305 76.2317 21.9372 76.536 21.6826C76.8459 21.4225 77.2222 21.2205 77.6649 21.0767C78.1132 20.9272 78.6168 20.8525 79.1757 20.8525C79.956 20.8525 80.6256 20.9771 81.1845 21.2261C81.7489 21.4751 82.1806 21.8182 82.4794 22.2554C82.7838 22.687 82.9359 23.1795 82.9359 23.7329H80.5453C80.5453 23.5005 80.4955 23.293 80.3959 23.1104C80.3018 22.9222 80.1524 22.7756 79.9477 22.6704C79.7484 22.5597 79.4884 22.5044 79.1674 22.5044C78.9018 22.5044 78.6721 22.5514 78.4784 22.6455C78.2847 22.734 78.1353 22.8558 78.0302 23.0107C77.9306 23.1602 77.8808 23.3262 77.8808 23.5088C77.8808 23.6471 77.9084 23.7716 77.9638 23.8823C78.0246 23.9875 78.1215 24.0843 78.2543 24.1729C78.3871 24.2614 78.5587 24.3444 78.769 24.4219C78.9848 24.4938 79.2504 24.5602 79.5658 24.6211C80.2133 24.7539 80.7916 24.9282 81.3007 25.144C81.8098 25.3543 82.2138 25.6421 82.5126 26.0073C82.8114 26.367 82.9608 26.8402 82.9608 27.4268C82.9608 27.8252 82.8723 28.1904 82.6952 28.5225C82.5181 28.8545 82.2636 29.145 81.9315 29.394C81.5995 29.6375 81.2011 29.8285 80.7362 29.9668C80.2769 30.0996 79.7595 30.166 79.184 30.166C78.3484 30.166 77.64 30.0166 77.059 29.7178C76.4835 29.4189 76.0463 29.0399 75.7475 28.5806C75.4542 28.1157 75.3075 27.6398 75.3075 27.1528H77.5736C77.5847 27.4793 77.6677 27.7422 77.8227 27.9414C77.9831 28.1406 78.1851 28.2845 78.4286 28.373C78.6776 28.4616 78.946 28.5059 79.2338 28.5059C79.5437 28.5059 79.801 28.4644 80.0058 28.3813C80.2105 28.2928 80.3655 28.1766 80.4706 28.0327C80.5813 27.8833 80.6366 27.7118 80.6366 27.5181ZM87.6235 28.2983C87.9168 28.2983 88.1769 28.243 88.4038 28.1323C88.6307 28.0161 88.8078 27.8556 88.9351 27.6509C89.0679 27.4406 89.137 27.1943 89.1426 26.9121H91.3921C91.3866 27.543 91.2178 28.1047 90.8857 28.5972C90.5537 29.0841 90.1082 29.4688 89.5493 29.751C88.9904 30.0277 88.3651 30.166 87.6733 30.166C86.9761 30.166 86.3674 30.0498 85.8472 29.8174C85.3325 29.585 84.9036 29.264 84.5605 28.8545C84.2174 28.4395 83.9601 27.958 83.7886 27.4102C83.617 26.8568 83.5312 26.2646 83.5312 25.6338V25.3931C83.5312 24.7567 83.617 24.1646 83.7886 23.6167C83.9601 23.0633 84.2174 22.5819 84.5605 22.1724C84.9036 21.7573 85.3325 21.4336 85.8472 21.2012C86.3618 20.9688 86.965 20.8525 87.6567 20.8525C88.3927 20.8525 89.0374 20.9937 89.5908 21.2759C90.1497 21.5581 90.5869 21.9621 90.9023 22.4878C91.2233 23.008 91.3866 23.625 91.3921 24.3389H89.1426C89.137 24.04 89.0734 23.7689 88.9517 23.5254C88.8354 23.2819 88.6639 23.0882 88.437 22.9443C88.2157 22.7949 87.9417 22.7202 87.6152 22.7202C87.2666 22.7202 86.9816 22.7949 86.7603 22.9443C86.5389 23.0882 86.3674 23.2874 86.2456 23.542C86.1239 23.791 86.0381 24.076 85.9883 24.397C85.944 24.7124 85.9219 25.0444 85.9219 25.3931V25.6338C85.9219 25.9824 85.944 26.3172 85.9883 26.6382C86.0326 26.9591 86.1156 27.2441 86.2373 27.4932C86.3646 27.7422 86.5389 27.9386 86.7603 28.0825C86.9816 28.2264 87.2694 28.2983 87.6235 28.2983ZM94.5689 22.9775V30H92.1783V21.0186H94.4278L94.5689 22.9775ZM97.275 20.9604L97.2335 23.1768C97.1173 23.1602 96.9762 23.1463 96.8102 23.1353C96.6497 23.1187 96.503 23.1104 96.3702 23.1104C96.0327 23.1104 95.7394 23.1546 95.4903 23.2432C95.2468 23.3262 95.0421 23.4507 94.8761 23.6167C94.7156 23.7827 94.5938 23.9847 94.5108 24.2227C94.4334 24.4606 94.3891 24.7318 94.378 25.0361L93.8966 24.8867C93.8966 24.3057 93.9547 23.7716 94.0709 23.2847C94.1871 22.7922 94.3559 22.3633 94.5772 21.998C94.8041 21.6328 95.0808 21.3506 95.4073 21.1514C95.7338 20.9521 96.1074 20.8525 96.5279 20.8525C96.6607 20.8525 96.7963 20.8636 96.9347 20.8857C97.073 20.9023 97.1865 20.9272 97.275 20.9604ZM100.327 21.0186V30H97.9284V21.0186H100.327ZM97.779 18.6777C97.779 18.3291 97.9008 18.0413 98.1442 17.8145C98.3877 17.5876 98.7142 17.4741 99.1237 17.4741C99.5277 17.4741 99.8514 17.5876 100.095 17.8145C100.344 18.0413 100.468 18.3291 100.468 18.6777C100.468 19.0264 100.344 19.3141 100.095 19.541C99.8514 19.7679 99.5277 19.8813 99.1237 19.8813C98.7142 19.8813 98.3877 19.7679 98.1442 19.541C97.9008 19.3141 97.779 19.0264 97.779 18.6777ZM101.703 17.25H104.094V27.9414L103.853 30H101.703V17.25ZM109.78 25.418V25.5923C109.78 26.2619 109.708 26.8761 109.564 27.4351C109.425 27.994 109.21 28.4782 108.916 28.8877C108.623 29.2917 108.258 29.6071 107.821 29.834C107.389 30.0553 106.88 30.166 106.293 30.166C105.745 30.166 105.269 30.0553 104.866 29.834C104.467 29.6126 104.132 29.3 103.861 28.896C103.59 28.492 103.371 28.0189 103.205 27.4766C103.039 26.9342 102.915 26.3421 102.832 25.7002V25.3184C102.915 24.6764 103.039 24.0843 103.205 23.542C103.371 22.9997 103.59 22.5265 103.861 22.1226C104.132 21.7186 104.467 21.4059 104.866 21.1846C105.264 20.9632 105.734 20.8525 106.277 20.8525C106.869 20.8525 107.383 20.966 107.821 21.1929C108.263 21.4142 108.629 21.7297 108.916 22.1392C109.21 22.5431 109.425 23.0246 109.564 23.5835C109.708 24.1369 109.78 24.7484 109.78 25.418ZM107.389 25.5923V25.418C107.389 25.0527 107.361 24.7096 107.306 24.3887C107.256 24.0622 107.168 23.7772 107.04 23.5337C106.913 23.2847 106.739 23.0882 106.517 22.9443C106.302 22.8005 106.022 22.7285 105.679 22.7285C105.353 22.7285 105.076 22.7839 104.849 22.8945C104.622 23.0052 104.434 23.1602 104.284 23.3594C104.141 23.5586 104.033 23.7965 103.961 24.0732C103.889 24.3444 103.845 24.6432 103.828 24.9697V26.0571C103.845 26.4943 103.916 26.8817 104.044 27.2192C104.177 27.5513 104.376 27.8141 104.641 28.0078C104.913 28.196 105.264 28.29 105.696 28.29C106.033 28.29 106.313 28.2236 106.534 28.0908C106.755 27.958 106.927 27.7699 107.049 27.5264C107.176 27.2829 107.264 26.9979 107.314 26.6714C107.364 26.3394 107.389 25.9797 107.389 25.5923ZM114.799 30.166C114.102 30.166 113.477 30.0553 112.923 29.834C112.37 29.6071 111.899 29.2944 111.512 28.896C111.13 28.4976 110.837 28.0355 110.632 27.5098C110.427 26.9785 110.325 26.4141 110.325 25.8164V25.4844C110.325 24.8037 110.422 24.1812 110.616 23.6167C110.809 23.0522 111.086 22.5625 111.446 22.1475C111.811 21.7324 112.254 21.4142 112.774 21.1929C113.294 20.966 113.881 20.8525 114.534 20.8525C115.17 20.8525 115.734 20.9577 116.227 21.168C116.719 21.3783 117.132 21.6771 117.464 22.0645C117.801 22.4518 118.056 22.9167 118.227 23.459C118.399 23.9958 118.485 24.5934 118.485 25.252V26.248H111.346V24.6543H116.136V24.4717C116.136 24.1396 116.075 23.8436 115.953 23.5835C115.837 23.3179 115.66 23.1076 115.422 22.9526C115.184 22.7977 114.879 22.7202 114.509 22.7202C114.193 22.7202 113.922 22.7894 113.695 22.9277C113.468 23.0661 113.283 23.2598 113.139 23.5088C113.001 23.7578 112.896 24.0511 112.824 24.3887C112.757 24.7207 112.724 25.0859 112.724 25.4844V25.8164C112.724 26.1761 112.774 26.5081 112.873 26.8125C112.979 27.1169 113.125 27.3797 113.313 27.6011C113.507 27.8224 113.739 27.994 114.011 28.1157C114.287 28.2375 114.6 28.2983 114.949 28.2983C115.38 28.2983 115.781 28.2153 116.152 28.0493C116.529 27.8778 116.852 27.6204 117.123 27.2773L118.286 28.5391C118.097 28.8102 117.84 29.0703 117.514 29.3193C117.193 29.5684 116.805 29.7731 116.351 29.9336C115.898 30.0885 115.38 30.166 114.799 30.166Z" fill="white"/>
</g>
<defs>
<clipPath id="clip0_1689_42">
<rect width="166" height="50" fill="white"/>
</clipPath>
</defs>
</svg>
